<svg
  xmlns="http://www.w3.org/2000/svg"
  width="230"
  height="129"
  fill="none"
>
  <path
    stroke="#fff"
    d="M2 .5h228"
  />
  <circle
    cx="5"
    cy="29"
    r="5"
    fill="#AAA"
  />
  <circle
    cx="25"
    cy="29"
    r="5"
    fill="#AAA"
  />
  <circle
    cx="45"
    cy="29"
    r="5"
    fill="#AAA"
  />
  <circle
    cx="65"
    cy="29"
    r="5"
    fill="#AAA"
  />
  <circle
    cx="5"
    cy="49"
    r="5"
    fill="#AAA"
  />
  <circle
    cx="25"
    cy="49"
    r="5"
    fill="#AAA"
  />
  <circle
    cx="45"
    cy="49"
    r="5"
    fill="#AAA"
  />
  <circle
    cx="65"
    cy="49"
    r="5"
    fill="#AAA"
  />
  <circle
    cx="5"
    cy="69"
    r="5"
    fill="#AAA"
  />
  <circle
    cx="25"
    cy="69"
    r="5"
    fill="#AAA"
  />
  <circle
    cx="45"
    cy="69"
    r="5"
    fill="#AAA"
  />
  <circle
    cx="65"
    cy="69"
    r="5"
    fill="#AAA"
  />
  <circle
    cx="5"
    cy="89"
    r="5"
    fill="#AAA"
  />
  <circle
    cx="25"
    cy="89"
    r="5"
    fill="#AAA"
  />
  <circle
    cx="45"
    cy="89"
    r="5"
    fill="#AAA"
  />
  <circle
    cx="65"
    cy="89"
    r="5"
    fill="#AAA"
  />
  <circle
    cx="85"
    cy="64"
    r="5"
    fill="#AAA"
  />
  <circle
    cx="105"
    cy="64"
    r="5"
    fill="#AAA"
  />
  <circle
    cx="125"
    cy="64"
    r="5"
    fill="#AAA"
  />
  <circle
    cx="145"
    cy="64"
    r="5"
    fill="#AAA"
  />
  <circle
    cx="85"
    cy="84"
    r="5"
    fill="#AAA"
  />
  <circle
    cx="105"
    cy="84"
    r="5"
    fill="#AAA"
  />
  <circle
    cx="125"
    cy="84"
    r="5"
    fill="#AAA"
  />
  <circle
    cx="145"
    cy="84"
    r="5"
    fill="#AAA"
  />
  <circle
    cx="85"
    cy="104"
    r="5"
    fill="#AAA"
  />
  <circle
    cx="105"
    cy="104"
    r="5"
    fill="#AAA"
  />
  <circle
    cx="125"
    cy="104"
    r="5"
    fill="#AAA"
  />
  <circle
    cx="145"
    cy="104"
    r="5"
    fill="#AAA"
  />
  <circle
    cx="85"
    cy="124"
    r="5"
    fill="#AAA"
  />
  <circle
    cx="105"
    cy="124"
    r="5"
    fill="#AAA"
  />
  <circle
    cx="125"
    cy="124"
    r="5"
    fill="#AAA"
  />
  <circle
    cx="145"
    cy="124"
    r="5"
    fill="#AAA"
  />
  <circle
    cx="165"
    cy="29"
    r="5"
    fill="#AAA"
  />
  <circle
    cx="185"
    cy="29"
    r="5"
    fill="#AAA"
  />
  <circle
    cx="205"
    cy="29"
    r="5"
    fill="#AAA"
  />
  <circle
    cx="225"
    cy="29"
    r="5"
    fill="#AAA"
  />
  <circle
    cx="165"
    cy="49"
    r="5"
    fill="#AAA"
  />
  <circle
    cx="185"
    cy="49"
    r="5"
    fill="#AAA"
  />
  <circle
    cx="205"
    cy="49"
    r="5"
    fill="#AAA"
  />
  <circle
    cx="225"
    cy="49"
    r="5"
    fill="#AAA"
  />
  <circle
    cx="165"
    cy="69"
    r="5"
    fill="#AAA"
  />
  <circle
    cx="185"
    cy="69"
    r="5"
    fill="#AAA"
  />
  <circle
    cx="205"
    cy="69"
    r="5"
    fill="#AAA"
  />
  <circle
    cx="225"
    cy="69"
    r="5"
    fill="#AAA"
  />
  <circle
    cx="165"
    cy="89"
    r="5"
    fill="#AAA"
  />
  <circle
    cx="185"
    cy="89"
    r="5"
    fill="#AAA"
  />
  <circle
    cx="205"
    cy="89"
    r="5"
    fill="#AAA"
  />
  <circle
    cx="225"
    cy="89"
    r="5"
    fill="#AAA"
  />
</svg>
