<svg xmlns="http://www.w3.org/2000/svg" width="176" height="19" fill="none">
  <path fill="#3855F0" d="M12.5 0v8.4L6.3 4.3 0 8.3V0h12.5ZM12.5 10.8v4c0 2.3-2.8 4.2-6.2 4.2C2.8 19 0 17 0 14.9v-4.1h12.5ZM32.3.8v17.8h-6.8V.8h6.8ZM34.6.8h7.7l10.3 10.1V.8h6.8v17.8h-6.8L41.4 7.8v10.8h-6.8V.8ZM68.8 18.6v-13h-7.7V.9h22.3v4.9h-7.7v13h-6.9ZM85.1.8H105v4.4h-13v2.2h12.7v4.3H91.8v2.5h13.3v4.4H85V.8ZM113.9 5.1v3.1h7.8c1.4 0 2-.5 2-1.5s-.6-1.6-2-1.6h-7.8Zm0 7.4v6.1H107V.8h16.3c5 0 7.5 1.5 7.5 4.6v.2c0 .6-.1 1.2-.4 1.7-.2.5-.5.9-1 1.2a5.7 5.7 0 0 1-2.2 1.1 5 5 0 0 1 2.7 1.5 4 4 0 0 1 1 2.8v2.6c0 1 0 1.6.3 2v.1h-7c-.1-.1-.2-.4-.2-.9v-2c0-1.1-.3-2-.8-2.4-.6-.5-1.5-.8-2.8-.8h-6.5ZM139.5.8v17.8h-6.8V.8h6.8ZM154.3.5h1a25.5 25.5 0 0 1 7.6 1.1 8.7 8.7 0 0 1 4 2.8l.9 1.7.4 1.6.1 1.6v.7a9.8 9.8 0 0 1-.5 3.3 7 7 0 0 1-2.5 3.2c-.7.5-1.5 1-2.3 1.3a25.6 25.6 0 0 1-7.6 1.2h-1.1a26 26 0 0 1-7.7-1.2 9.9 9.9 0 0 1-4-2.8 8.3 8.3 0 0 1-1.4-5v-.7l.1-1.6.5-1.6c.2-.6.5-1.2.9-1.7s.9-1 1.6-1.5c.6-.5 1.4-1 2.3-1.3a26 26 0 0 1 7.7-1.2Zm7 9.3v-.3a3.7 3.7 0 0 0-1.3-2.8c-.4-.5-1.1-.8-2-1-.9-.3-2-.4-3.2-.4a12 12 0 0 0-3.3.3c-.9.3-1.6.6-2 1a4 4 0 0 0-1 1.4 4 4 0 0 0-.2 1.5v.3c0 .5 0 1 .3 1.5.2.4.5 1 1 1.4.4.4 1 .8 2 1a11.8 11.8 0 0 0 6.5 0c.8-.2 1.5-.6 2-1l.9-1.4.3-1.5ZM175.6 14v4.6h-6.8V14h6.8Z"/>
</svg>
