<svg
  xmlns="http://www.w3.org/2000/svg"
  width="30"
  height="31"
  fill="none"
>
  <path
    fill="currentColor"
    d="M11.4 22.4a3.8 3.8 0 1 0 0 7.6 3.8 3.8 0 0 0 0-7.6Zm0 5.3a1.5 1.5 0 1 1 0-3 1.5 1.5 0 0 1 0 3ZM22.6 22.4a3.8 3.8 0 1 0 0 7.6 3.8 3.8 0 0 0 0-7.6Zm0 5.3a1.5 1.5 0 1 1 0-3 1.5 1.5 0 0 1 0 3ZM29.2 7.4c-.2-.3-.6-.4-.9-.4H8.4l-1-5.3c-.1-.4-.5-.8-1-.8L2 0a1.1 1.1 0 1 0-.4 2.3l3.8.6 3.3 16.9c.1.5.6 1 1.1 1h16c.5 0 1-.4 1-1l2.7-11.4c0-.4 0-.7-.2-1Zm-4.5 11h-14L8.8 9.2h18l-2 9.2Z"
  />
</svg>
